<?xml version="1.0" encoding="UTF-8"?>
<svg id="Capa_1" data-name="Capa 1" xmlns="http://www.w3.org/2000/svg" viewBox="0 0 922.73 227.8">
  <defs>
    <style>
      .cls-1 {
        fill: #fff;
        stroke-width: 0px;
      }
    </style>
  </defs>
  <path class="cls-1" d="M352.85,126.21c-4.45-1.76-9.23-3.15-14.21-4.15-4.94-.99-9.68-2.05-14.09-3.15-4.36-1.09-7.95-2.57-10.7-4.39-2.66-1.77-3.96-4.26-3.96-7.6,0-8.11,6.64-12.06,20.3-12.06,7.19,0,12.41,1.31,15.51,3.9,1.97,1.65,3.42,3.52,4.31,5.56,1.12,2.56,3.62,4.21,6.37,4.21,2.46,0,4.69-1.26,5.97-3.37,1.27-2.09,1.36-4.63.24-6.79-.5-.96-1.06-1.91-1.68-2.83-2.56-3.81-6.35-6.97-11.27-9.4-4.91-2.42-11.34-3.65-19.1-3.65-11.41,0-20.17,2.25-26.03,6.69-5.91,4.48-8.9,10.85-8.9,18.95,0,5.5,1.47,9.91,4.36,13.1,2.85,3.15,6.58,5.62,11.09,7.34,4.45,1.7,9.22,3.09,14.2,4.15,4.86,1.03,9.61,2.12,14.1,3.24,4.36,1.09,7.95,2.63,10.68,4.56,2.67,1.89,3.97,4.5,3.97,7.95,0,2.77-.78,5.06-2.31,6.82-1.57,1.79-3.53,3.16-5.83,4.05-2.34.91-4.8,1.55-7.32,1.9-2.54.35-4.7.52-6.41.52-5.5,0-10.02-.84-13.43-2.49-3.39-1.64-5.94-3.81-7.57-6.45-.8-1.29-1.45-2.62-1.94-3.96-1.06-2.88-3.81-4.82-6.84-4.82-2.46,0-4.74,1.23-6.1,3.29s-1.59,4.64-.62,6.9c.73,1.71,1.64,3.38,2.71,4.99,2.96,4.45,7.32,8.08,12.94,10.8,5.61,2.71,12.56,4.09,20.68,4.09,10.94,0,19.81-2.31,26.37-6.85,6.62-4.59,9.98-11.33,9.98-20.02,0-5.61-1.46-10.13-4.35-13.44-2.85-3.27-6.58-5.83-11.09-7.61ZM195.27,58.42c-1.37-1.85-3.47-2.92-5.77-2.92-3.17,0-5.93,2.04-6.85,5.07l-27.92,91.32-25.53-61.74,4.39-13.65.08.26,3.89-11.99c.71-2.18.34-4.5-1.01-6.36-1.35-1.86-3.44-2.92-5.74-2.92-3.1,0-5.81,1.98-6.76,4.93l-29.21,91.24-27.85-91.1c-.93-3.03-3.68-5.07-6.86-5.07-2.3,0-4.41,1.06-5.77,2.92s-1.76,4.18-1.07,6.38l31.63,101.65c1.17,3.76,4.6,6.28,8.53,6.28h2.65c3.89,0,7.31-2.49,8.5-6.2l5.49-17.04,11.87-36.88,22.66,52.66c1.43,4.46,5.54,7.45,10.23,7.45s8.85-3.03,10.26-7.55l31.23-100.38c.68-2.2.29-4.52-1.07-6.38ZM263.95,88.64c-6.55-4.07-14.47-6.13-23.54-6.13s-16.84,2.06-23.45,6.13c-6.6,4.07-11.75,9.63-15.29,16.53-3.53,6.89-5.32,14.67-5.32,23.14s1.88,16.12,5.59,23.06c3.71,6.96,9,12.55,15.73,16.62,6.72,4.07,14.67,6.13,23.62,6.13,10.48,0,19.18-2.55,25.86-7.57,3.45-2.59,6.45-5.61,8.94-8.98,1.6-2.17,1.84-5,.63-7.4-1.22-2.41-3.55-3.84-6.25-3.84-2.28,0-4.44,1.14-5.76,3.05-2.09,3-4.76,5.57-7.94,7.65-4.09,2.67-9.24,4.03-15.3,4.03-5.73,0-10.82-1.24-15.15-3.7-4.33-2.45-7.84-5.81-10.41-9.97-2.47-4-4.09-8.46-4.82-13.25h73.39v-5.83c0-8.47-1.79-16.25-5.32-23.14-3.54-6.9-8.65-12.46-15.2-16.53ZM211.28,120.73c1.33-7.04,4.45-13.02,9.28-17.79,4.96-4.89,11.64-7.38,19.86-7.38s14.93,2.48,19.94,7.38c4.88,4.77,7.97,10.76,9.2,17.79h-58.28ZM552.31,62.29c0-3.75-3.05-6.79-6.79-6.79h-81.72c-3.75,0-6.79,3.05-6.79,6.79s3.05,6.79,6.79,6.79h33.72v96.5c0,3.94,3.2,7.14,7.14,7.14s7.14-3.2,7.14-7.14v-96.5h33.72c3.75,0,6.79-3.05,6.79-6.79ZM418.94,83.31h-13.14v-22.38c-.11-3.2-2.67-6.11-6.1-6.92-1.93-.47-4.08-.14-5.84.95-2.3,1.42-3.75,3.76-3.78,6.09,0,.04,0,.07,0,.21v22.05h-10.77c-3.5.03-6.51,2.6-7.01,5.97-.05.31-.08.65-.08,1.02s.03.7.08,1.01c.5,3.33,3.36,5.84,6.79,5.96h10.98v55.94c0,4.19.68,7.96,2.01,11.2,1.19,2.97,2.89,5.27,5.07,6.82,2.12,1.51,4.63,2.48,7.46,2.89,2.66.36,5.41.54,8.17.54h1.73s.2,0,.2,0c3.94-.12,7.02-3.22,7.02-7.06s-3.07-6.96-7-7.07l-.02.57h0l-.06-.57h-.15c-1.07,0-2.35-.03-3.68-.18-.26-.03-.51-.07-.77-.11l-.29-.05c-.38-.05-.74-.12-1.11-.19-.67-.11-1.22-.38-1.67-.82-.42-.4-.79-1.17-1.07-2.22-.23-.94-.2-2.23-.17-3.86.01-.63.03-1.3.03-2.01v-53.82h13.12c3.86-.09,7-3.22,7-6.97s-3.06-6.9-6.98-6.99ZM379.33,83.88h0s0,0,0,0h0ZM605.98,88.64c-6.55-4.07-14.47-6.13-23.54-6.13s-16.84,2.06-23.45,6.13c-6.61,4.07-11.75,9.63-15.29,16.53-3.53,6.89-5.32,14.68-5.32,23.14s1.88,16.12,5.59,23.06c3.71,6.96,9,12.55,15.73,16.62,6.72,4.07,14.67,6.13,23.62,6.13,10.49,0,19.18-2.55,25.86-7.57,3.44-2.59,6.45-5.61,8.94-8.98,1.6-2.17,1.84-5,.63-7.4-1.21-2.41-3.55-3.84-6.25-3.84-2.28,0-4.43,1.14-5.76,3.05-2.09,3-4.76,5.58-7.94,7.65-4.09,2.67-9.24,4.03-15.3,4.03-5.73,0-10.82-1.24-15.15-3.7-4.34-2.45-7.84-5.81-10.41-9.97-2.47-4-4.09-8.45-4.83-13.25h73.39v-5.83c0-8.47-1.79-16.26-5.32-23.14-3.54-6.9-8.65-12.46-15.2-16.53ZM553.31,120.73c1.33-7.04,4.45-13.02,9.28-17.79,4.96-4.89,11.64-7.38,19.86-7.38s14.93,2.48,19.95,7.38c4.88,4.77,7.97,10.75,9.2,17.79h-58.28ZM830.97,88.64c-6.55-4.07-14.47-6.13-23.54-6.13s-16.84,2.06-23.45,6.13c-6.61,4.07-11.75,9.63-15.29,16.53-3.53,6.89-5.32,14.68-5.32,23.14s1.79,16.11,5.32,23.05c3.54,6.96,8.68,12.55,15.29,16.62,6.61,4.07,14.5,6.13,23.45,6.13s16.98-2.06,23.54-6.13c6.55-4.07,11.66-9.66,15.2-16.62,3.53-6.94,5.32-14.7,5.32-23.05s-1.79-16.26-5.32-23.14c-3.54-6.9-8.65-12.46-15.2-16.53ZM833.75,144.65c-2.28,4.96-5.67,8.99-10.06,11.96-4.38,2.96-9.85,4.46-16.25,4.46s-11.73-1.5-16.17-4.46c-4.45-2.97-7.86-6.99-10.15-11.95-2.29-4.99-3.46-10.48-3.46-16.33s1.16-11.49,3.45-16.42c2.28-4.9,5.7-8.9,10.15-11.87,4.45-2.96,9.89-4.46,16.17-4.46s11.87,1.5,16.25,4.46c4.4,2.97,7.78,6.97,10.06,11.87,2.29,4.93,3.45,10.46,3.45,16.42s-1.16,11.35-3.46,16.33ZM745.65,144.06c-2.55,0-4.94,1.43-6.22,3.73-1.9,3.4-4.51,6.31-7.77,8.65-4.26,3.07-9.49,4.63-15.54,4.63s-11.86-1.5-16.53-4.47c-4.68-2.97-8.33-7-10.84-11.97-2.52-4.98-3.8-10.47-3.8-16.32s1.28-11.48,3.8-16.4c2.51-4.91,6.16-8.91,10.85-11.88,4.68-2.97,10.24-4.47,16.53-4.47s11.27,1.56,15.54,4.63c3.25,2.34,5.87,5.25,7.77,8.66,1.28,2.3,3.67,3.73,6.22,3.73s4.95-1.38,6.21-3.68c1.28-2.34,1.18-5.08-.27-7.34-2.65-4.12-6.12-7.78-10.32-10.87-7.38-5.43-16.43-8.18-26.9-8.18-8.84,0-16.61,2.06-23.1,6.13-6.49,4.07-11.6,9.63-15.19,16.53-3.59,6.88-5.41,14.67-5.41,23.15s1.82,16.12,5.41,23.06c3.6,6.96,8.71,12.55,15.2,16.62,6.49,4.07,14.26,6.14,23.1,6.14,10.48,0,19.53-2.75,26.9-8.18,4.2-3.09,7.67-6.75,10.32-10.87,1.45-2.25,1.55-5,.27-7.34-1.26-2.31-3.58-3.68-6.21-3.68ZM648.64,54.47c-3.94,0-7.14,3.2-7.14,7.14v103.97c0,3.94,3.2,7.14,7.14,7.14s7.14-3.2,7.14-7.14V61.61c0-3.94-3.2-7.14-7.14-7.14ZM862.21,66.85c-.34-.36-.77-.7-1.29-1,1.05-.15,1.84-.52,2.37-1.11.53-.58.79-1.33.79-2.22,0-.71-.18-1.34-.52-1.89-.35-.55-.81-.93-1.39-1.15-.58-.21-1.51-.32-2.78-.32h-5.09v11.96h2.42v-4.99h.49c.56,0,.96.04,1.22.14.26.09.5.25.73.5.23.24.65.83,1.27,1.76l1.75,2.6h2.89l-1.46-2.33c-.58-.93-1.04-1.58-1.38-1.94ZM858.49,64.22h-1.79v-3.04h1.89c.98,0,1.57.01,1.76.04.39.06.7.22.91.47.21.25.32.57.32.98,0,.36-.08.66-.24.9-.16.24-.39.41-.68.51-.29.1-1.01.15-2.17.15ZM859.02,55.04c-5.83,0-10.56,4.73-10.56,10.57s4.73,10.56,10.56,10.56,10.57-4.73,10.57-10.56-4.73-10.57-10.57-10.57ZM859.02,74.53c-4.92,0-8.93-4-8.93-8.93s4-8.93,8.93-8.93,8.93,4,8.93,8.93-4,8.93-8.93,8.93Z"/>
</svg>